<svg viewBox="0 0 17 24" xmlns="http://www.w3.org/2000/svg">
  <path
    d="M0 4.49063C0 2.01094 2.01094 0 4.49063 0H12.1969C14.6766 0 16.6875 2.01094 16.6875 4.49063C16.6875 6.06094 15.8813 7.44375 14.6578 8.24531C15.8813 9.04688 16.6875 10.4297 16.6875 12C16.6875 14.4797 14.6766 16.4906 12.1969 16.4906H12.0984C10.9359 16.4906 9.87656 16.05 9.07969 15.3234V19.4625C9.07969 21.975 7.01719 24 4.51406 24C2.03906 24 0 21.9938 0 19.5094C0 17.9391 0.80625 16.5562 2.025 15.7547C0.80625 14.9531 0 13.5703 0 12C0 10.4297 0.80625 9.04688 2.025 8.24531C0.80625 7.44375 0 6.06094 0 4.49063ZM7.60781 8.98125H4.49063C2.82188 8.98125 1.47188 10.3313 1.47188 12C1.47188 13.6594 2.8125 15.0094 4.47188 15.0187C4.47656 15.0187 4.48594 15.0187 4.49063 15.0187H7.60781V8.98125ZM9.07969 12C9.07969 13.6687 10.4297 15.0187 12.0984 15.0187H12.1969C13.8609 15.0187 15.2156 13.6687 15.2156 12C15.2156 10.3313 13.8609 8.98125 12.1969 8.98125H12.0984C10.4297 8.98125 9.07969 10.3313 9.07969 12ZM4.49063 16.4906C4.48594 16.4906 4.47656 16.4906 4.47188 16.4906C2.8125 16.5 1.47188 17.85 1.47188 19.5094C1.47188 21.1734 2.84063 22.5281 4.51406 22.5281C6.21563 22.5281 7.60781 21.15 7.60781 19.4625V16.4906H4.49063ZM4.49063 1.47187C2.82188 1.47187 1.47188 2.82188 1.47188 4.49063C1.47188 6.15938 2.82188 7.50937 4.49063 7.50937H7.60781V1.47187H4.49063ZM9.07969 7.50937H12.1969C13.8609 7.50937 15.2156 6.15938 15.2156 4.49063C15.2156 2.82188 13.8609 1.47187 12.1969 1.47187H9.07969V7.50937Z" />
</svg>