<svg viewBox="0 0 25 24" xmlns="http://www.w3.org/2000/svg">
  <path
    d="M24.8303 3.42857C24.8303 1.5375 23.2928 0 21.4018 0H4.25889C2.36782 0 0.830322 1.5375 0.830322 3.42857V20.5714C0.830322 22.4625 2.36782 24 4.25889 24H21.4018C23.2928 24 24.8303 22.4625 24.8303 20.5714V3.42857ZM10.5214 22.1196C8.71604 22.1196 7.67139 21.1875 7.13568 20.0571L8.97318 18.9482C9.32675 19.575 9.64818 20.1054 10.425 20.1054C11.1643 20.1054 11.6357 19.8161 11.6357 18.6857V11.0196H13.891V18.7179C13.891 21.0536 12.5196 22.1196 10.5214 22.1196ZM15.1178 19.8161L16.9553 18.7554C17.4375 19.5429 18.0696 20.1268 19.1785 20.1268C20.1107 20.1268 20.7107 19.6607 20.7107 19.0125C20.7107 18.2411 20.1 17.9679 19.066 17.5125L18.5035 17.2714C16.875 16.5804 15.7982 15.7071 15.7982 13.8696C15.7982 12.1768 17.0893 10.8911 19.0982 10.8911C20.5339 10.8911 21.5625 11.3893 22.3018 12.6964L20.5446 13.8214C20.1589 13.1304 19.741 12.8571 19.0928 12.8571C18.4339 12.8571 18.016 13.275 18.016 13.8214C18.016 14.4964 18.4339 14.7696 19.4035 15.1929L19.966 15.4339C21.8839 16.2536 22.9607 17.0946 22.9607 18.9804C22.9607 21.0054 21.3643 22.1196 19.2268 22.1196C17.1321 22.1196 15.7768 21.1232 15.1178 19.8161Z" />
</svg>